Coordinates
version=1
nRows=8
nColumns=36
inDegrees=yes

Units are S.I. units (second, meters, Newtons, ...)
If the header above contains a line with 'inDegrees', this indicates whether rotational values are in degrees (yes) or radians (no).

endheader
time	pelvis_tilt	pelvis_list	pelvis_rotation	pelvis_tx	pelvis_ty	pelvis_tz	hip_flexion_r	hip_adduction_r	hip_rotation_r	knee_angle_r	knee_angle_r_beta	ankle_angle_r	subtalar_angle_r	mtp_angle_r	hip_flexion_l	hip_adduction_l	hip_rotation_l	knee_angle_l	knee_angle_l_beta	ankle_angle_l	subtalar_angle_l	mtp_angle_l	lumbar_extension	lumbar_bending	lumbar_rotation	arm_flex_r	arm_add_r	arm_rot_r	elbow_flex_r	pro_sup_r	arm_flex_l	arm_add_l	arm_rot_l	elbow_flex_l	pro_sup_l
     40.48333330	      3.86867463	     -0.08059070	      4.54899736	      0.45591334	      1.01876863	      0.85871938	    -16.84102895	      3.20703006	     -8.26783345	      1.65055960	      0.02880770	     20.93311275	      2.03570666	     -7.49999987	     29.95613313	     -1.61191805	      1.23462631	     14.71942364	      0.25690241	     10.74548111	     -3.58472544	     -7.49999987	    -22.34831173	      3.32616535	      2.70228638	     17.63761499	    -15.25696694	      6.93207351	     44.95094663	     70.27211317	     -5.33439240	     -6.53069660	     -0.26639093	     14.91128785	     65.12105159
     40.50000000	      3.41984914	      0.14011231	      4.18531504	      0.45766055	      1.01382918	      0.85679990	    -17.32065747	      2.82496357	     -7.43319883	      2.11631997	      0.03693675	     21.57926769	      1.98560954	     -7.49999987	     31.11325744	     -1.25212906	      1.42468506	     16.83697447	      0.29386064	     11.43780214	     -3.64595856	     -7.49999987	    -21.97068906	      2.70284512	      2.78104937	     17.72072448	    -15.19909094	      8.10024424	     44.61329747	     70.00115151	     -5.16384033	     -6.60493632	     -0.29825338	     14.93512913	     65.07748962
     40.51666670	      3.09628224	      0.15234679	      3.71425671	      0.45924931	      1.01095014	      0.85565520	    -17.62341405	      2.55065530	     -6.62394419	      2.95302364	      0.05153999	     22.02856957	      1.72539802	     -7.49999987	     32.10775210	     -1.15076261	      1.42689670	     20.07249369	      0.35033110	     11.58392312	     -3.56609157	     -7.49999987	    -21.65873862	      2.33098464	      3.07196056	     17.57020347	    -15.25869037	      9.26486444	     44.31853077	     69.68338020	     -4.95687257	     -6.77156761	     -0.27327057	     15.19239998	     65.04241228
     40.53333330	      2.85793167	     -0.04775163	      3.23397098	      0.46093479	      1.00851584	      0.85531090	    -17.72198818	      2.41782226	     -5.72252663	      4.10285404	      0.07160831	     22.25039596	      1.14587922	     -7.49999987	     32.89867198	     -1.33238510	      1.42657308	     23.74485124	      0.41442583	     11.10402426	     -3.23006597	     -7.49999987	    -21.43183822	      2.20911472	      3.41929803	     17.30349992	    -15.33827542	     10.44334882	     43.93178280	     69.38512113	     -4.77766405	     -7.01194128	     -0.36397425	     15.78182036	     65.01236779
     40.55000000	      2.70447978	     -0.35803240	      2.83345195	      0.46425541	      1.00657139	      0.85379539	    -17.74978701	      2.36879475	     -4.51154320	      5.41185465	      0.09445468	     22.03542012	     -0.04254979	     -7.49999987	     33.40248207	     -1.68507085	      1.50734149	     27.25115784	      0.47562243	     10.11437607	     -2.79669802	     -7.49999987	    -21.27852766	      2.24851109	      3.84474619	     16.65423970	    -15.37942148	     10.92971307	     43.69202656	     68.95503396	     -4.61644925	     -7.24731887	     -0.52197137	     16.54225409	     64.80555573
     40.56666670	      2.67597772	     -0.54568932	      2.72218576	      0.47033576	      1.00507616	      0.84918811	    -17.93098472	      2.19932729	     -3.79682438	      6.84221819	      0.11941924	     21.64124403	     -0.72742607	     -7.49999987	     33.52565712	     -1.80923557	      1.77776204	     30.31318297	      0.52906485	      8.94789708	     -2.59838158	     -7.49999987	    -21.10180853	      2.26738001	      4.20689155	     15.65033445	    -15.48601751	     11.14961063	     43.09994478	     68.83962716	     -4.45423104	     -7.43148262	     -0.63866109	     17.41021066	     64.83828244
     40.58333330	      2.77698591	     -0.64877515	      2.74410441	      0.47769938	      1.00397803	      0.84240823	    -18.30573686	      1.94248436	     -3.11041598	      8.45077947	      0.14749393	     20.69312392	     -1.68488806	     -7.49999987	     33.28703477	     -1.73841648	      2.12551619	     32.97426648	      0.57550952	      8.04673918	     -2.78691474	     -7.49999987	    -20.94701106	      2.28782295	      4.66957062	     14.38109174	    -15.64545451	     10.98873613	     42.14195256	     68.46493335	     -4.28987402	     -7.42868629	     -0.85603624	     18.33640851	     64.67855110
     40.60000000	      2.85022374	     -0.42326653	      3.09018434	      0.48467763	      1.00357962	      0.83568149	    -18.74049049	      1.40797522	     -3.12501101	     10.17590002	      0.17760296	     19.17554252	     -2.51827025	     -7.49999987	     32.83672163	     -1.09050245	      2.55251149	     35.18773791	      0.61414188	      7.57102782	     -3.48423942	     -7.49999987	    -20.60957492	      2.15590313	      4.74104082	     13.02519638	    -15.47352648	     10.00653115	     40.76068760	     68.65924850	     -3.90147458	     -7.31694750	     -0.77411926	     18.37679718	     65.26641154
